<svg width="21" height="17" viewBox="0 0 21 17" fill="none" xmlns="http://www.w3.org/2000/svg">
<path fill-rule="evenodd" clip-rule="evenodd" d="M18.7352 3.35102C18.235 4.08291 17.6304 4.7065 16.9212 5.22181C16.9287 5.32637 16.9324 5.4832 16.9324 5.69231C16.9324 6.66318 16.7906 7.63217 16.5069 8.59931C16.2232 9.56645 15.7921 10.4944 15.2136 11.3831C14.6351 12.2718 13.9465 13.0578 13.1477 13.7412C12.349 14.4245 11.386 14.9697 10.2588 15.3767C9.13157 15.7837 7.926 15.9872 6.64203 15.9872C4.61903 15.9872 2.76775 15.4458 1.08813 14.3629C1.34941 14.3928 1.64054 14.4077 1.96153 14.4077C3.64114 14.4077 5.13784 13.8924 6.45167 12.8618C5.66785 12.8469 4.96616 12.606 4.34657 12.1392C3.72698 11.6725 3.30148 11.0769 3.07007 10.3525C3.31641 10.3898 3.54409 10.4085 3.75311 10.4085C4.0741 10.4085 4.39136 10.3674 4.70489 10.2853C3.86881 10.1135 3.17645 9.69714 2.62777 9.0362C2.0791 8.37526 1.80477 7.60791 1.80477 6.73412V6.68931C2.31238 6.97311 2.85732 7.1262 3.43958 7.14861C2.9469 6.82001 2.55499 6.39059 2.26386 5.86034C1.97273 5.3301 1.82716 4.75505 1.82716 4.13518C1.82716 3.47798 1.99139 2.86933 2.31985 2.30921C3.2231 3.42198 4.3223 4.31255 5.61747 4.98096C6.91264 5.64937 8.29923 6.02091 9.77729 6.09559C9.71757 5.8118 9.68771 5.53548 9.68771 5.26662C9.68771 4.26587 10.0404 3.41264 10.7459 2.70689C11.4513 2.00114 12.3042 1.64827 13.3045 1.64827C14.3496 1.64827 15.2304 2.02914 15.947 2.79091C16.7607 2.63407 17.5259 2.34282 18.2425 1.91713C17.9663 2.77597 17.4363 3.44064 16.6525 3.91114C17.3467 3.83646 18.0409 3.64975 18.7352 3.35102Z" stroke="white"/>
</svg>
