<svg width="36" height="38" viewBox="0 0 36 38" fill="none" xmlns="http://www.w3.org/2000/svg">
<path d="M30.2397 2.32004L30.2397 2.32045V24.6104C33.1104 25.4318 35.214 27.9977 35.214 31.0319C35.214 34.7282 32.093 37.7288 28.2645 37.7289C28.2644 37.7289 28.2643 37.7289 28.2642 37.7289V37.6289C26.779 37.633 25.3312 37.1637 24.1308 36.289L30.2397 2.32004ZM30.2397 2.32004C30.2374 1.77517 30.0191 1.25344 29.6327 0.869322M30.2397 2.32004L29.6327 0.869322M29.6327 0.869322C29.2463 0.485224 28.7233 0.270085 28.1784 0.271097M29.6327 0.869322L28.1784 0.271097M28.1784 0.271097H28.1785V0.371097C28.6969 0.37011 29.1945 0.574795 29.5622 0.940246C29.9298 1.3057 30.1375 1.80207 30.1397 2.32045L28.1784 0.271097ZM28.1784 0.271097H2.84804H2.84795H28.1784ZM2.84814 36.389H24.0984L2.84795 36.289V36.389H2.84814ZM29.1493 24.3893C28.8558 24.3531 28.5603 24.3349 28.2645 24.3349C24.4354 24.3349 21.3144 27.3354 21.3144 31.0319V31.0321C21.3174 32.602 21.8854 34.1157 22.9103 35.2983L2.84795 35.2983L2.84751 35.2983C2.59172 35.2995 2.34593 35.1991 2.16405 35.0192C1.98226 34.8395 1.87916 34.5949 1.87734 34.3393V2.32079C1.87916 2.06513 1.98226 1.82061 2.16405 1.64083C2.34593 1.46097 2.59172 1.36059 2.84751 1.36172V1.36172H2.84795L28.1788 1.36172L28.1792 1.36172C28.435 1.36061 28.6808 1.46099 28.8627 1.64085C29.0445 1.82064 29.1475 2.06518 29.1493 2.32085C29.1493 2.32094 29.1493 2.32103 29.1493 2.32113L29.1493 24.3893ZM28.2642 36.6383C25.0294 36.6383 22.4051 34.1191 22.4051 31.0319C22.4051 27.9447 25.0294 25.4255 28.2642 25.4255C31.499 25.4255 34.1233 27.9447 34.1233 31.0319C34.1233 34.1191 31.499 36.6383 28.2642 36.6383Z" fill="#33395A" stroke="#33395A" stroke-width="0.2"/>
</svg>
