<svg width="47" height="44" viewBox="0 0 47 44" fill="none" xmlns="http://www.w3.org/2000/svg">
<path d="M46.4999 27.2152C45.6059 25.9014 43.8056 25.5537 42.4877 26.4393L36.4897 30.4534L36.4723 17.959L38.5561 19.911C38.9992 20.326 39.5769 20.5544 40.1835 20.5544C40.1846 20.5544 40.1859 20.5544 40.1871 20.5544C40.842 20.5535 41.4743 20.279 41.9219 19.8012C42.3567 19.337 42.5848 18.7313 42.5641 18.0956C42.5434 17.4598 42.2762 16.8702 41.812 16.4353L37.8615 12.7346C37.5911 12.4813 37.1665 12.4951 36.9133 12.7656C36.66 13.036 36.6739 13.4605 36.9442 13.7138L40.8947 17.4145C41.0974 17.6043 41.214 17.8617 41.223 18.1392C41.232 18.4168 41.1325 18.6812 40.9426 18.8838C40.7443 19.0955 40.4754 19.2123 40.1851 19.2126C40.1845 19.2126 40.1841 19.2126 40.1835 19.2126C39.9189 19.2126 39.6667 19.1129 39.4733 18.9317C39.4732 18.9316 39.4732 18.9316 39.4732 18.9316L23.7868 4.23689C23.5283 3.99482 23.126 3.99519 22.8682 4.23817L7.22249 18.9769C7.02044 19.1673 6.75625 19.267 6.47866 19.2593C6.20106 19.251 5.94339 19.1351 5.753 18.9328C5.56262 18.7308 5.46228 18.4666 5.47063 18.1891C5.4789 17.9115 5.59484 17.6538 5.79688 17.4634L22.612 1.62315C23.0105 1.24761 23.6359 1.2467 24.0355 1.62123L33.873 10.8369C34.1434 11.0902 34.5679 11.0764 34.8213 10.806C35.0746 10.5355 35.0607 10.1111 34.7904 9.8577L24.9529 0.64203C24.0374 -0.21572 22.6051 -0.213793 21.692 0.646528L16.3091 5.71739L16.3076 4.81291C16.3073 4.52779 16.1958 4.25993 15.994 4.05871C15.7925 3.85777 15.525 3.74715 15.2404 3.74715C15.2398 3.74715 15.2394 3.74715 15.2388 3.74715L11.3882 3.75257C11.1031 3.75293 10.8353 3.86438 10.634 4.06624C10.4328 4.2681 10.3221 4.53624 10.3226 4.82145L10.3332 11.347L4.87689 16.487C4.41387 16.9231 4.14848 17.5135 4.12948 18.1493C4.11048 18.785 4.34025 19.3902 4.77638 19.853C5.21241 20.316 5.80276 20.5815 6.43863 20.6005C6.46296 20.6012 6.48729 20.6016 6.51161 20.6016C7.12068 20.6016 7.69744 20.373 8.14257 19.9535L10.2217 17.9949L10.2299 23.8967C9.55725 23.7987 8.87667 23.7473 8.19296 23.7473H7.04504V23.3451C7.04504 21.9946 5.94633 20.8959 4.5959 20.8959H2.44914C1.09872 20.8958 0 21.9944 0 23.345V33.8574C0 34.2278 0.300359 34.5282 0.670852 34.5282C1.04134 34.5282 1.3417 34.2278 1.3417 33.8574V23.345C1.3417 22.7343 1.83851 22.2375 2.44914 22.2375H4.59581C5.20644 22.2375 5.70325 22.7343 5.70325 23.345V24.4181V38.1689V39.2314C5.70325 39.842 5.20644 40.3389 4.59581 40.3389H2.44914C1.83851 40.3389 1.3417 39.842 1.3417 39.2314V38.0575C1.3417 37.687 1.04134 37.3867 0.670852 37.3867C0.300359 37.3867 0 37.687 0 38.0575V39.2314C0 40.5818 1.09872 41.6806 2.44914 41.6806H4.59581C5.94623 41.6806 7.04495 40.5819 7.04495 39.2314V39.1403L16.8694 42.8606C16.8876 42.8675 16.906 42.8736 16.9248 42.8788C17.3519 42.9994 17.7789 43.0599 18.2004 43.0599C18.4284 43.0599 18.6549 43.0422 18.879 43.0067L33.3169 40.9255C33.3203 40.9251 33.3236 40.9245 33.327 40.924C34.5545 40.728 35.7126 40.2091 36.6758 39.4235C36.6841 39.4167 36.6924 39.4096 36.7004 39.4023L46.028 31.0132C47.1142 30.0489 47.317 28.4161 46.4999 27.2152ZM14.9663 5.08931L14.9694 6.97941L11.6728 10.0849L11.6646 5.09381L14.9663 5.08931ZM23.3293 5.64689L35.1287 16.7003L35.1492 31.3505L33.2498 32.6217L31.2385 32.5089L31.1853 31.9746C30.9982 30.0929 29.6091 28.5793 27.7723 28.2181L27.7602 19.5024C27.7593 18.8336 27.2147 18.2901 26.546 18.2901C26.5455 18.2901 26.545 18.2901 26.5444 18.2901L20.1503 18.2991C19.826 18.2995 19.5212 18.4262 19.2923 18.6559C19.0633 18.8855 18.9374 19.1906 18.9379 19.5148L18.9485 27.1139C17.682 26.8243 16.4727 26.3462 15.342 25.6848C15.2009 25.6022 15.0585 25.5226 14.9148 25.4451C14.8588 25.4149 14.8019 25.3865 14.7454 25.3571C14.658 25.3114 14.5708 25.2655 14.4825 25.2217C14.4122 25.1869 14.3411 25.1538 14.2702 25.1201C14.195 25.0844 14.1199 25.0483 14.0442 25.0139C13.9671 24.9789 13.8893 24.9456 13.8117 24.912C13.7407 24.8814 13.6697 24.8505 13.5983 24.8211C13.5185 24.7881 13.4381 24.7564 13.3577 24.7249C13.2864 24.697 13.215 24.6693 13.1433 24.6425C13.0637 24.6128 12.9838 24.584 12.9036 24.5559C12.8284 24.5293 12.7532 24.5034 12.6775 24.4782C12.6008 24.4526 12.5238 24.4275 12.4466 24.4032C12.3642 24.3772 12.2815 24.3524 12.1987 24.3279C12.1276 24.307 12.0565 24.2861 11.985 24.2662C11.8916 24.2403 11.7978 24.2159 11.7039 24.1919C11.6599 24.1806 11.6163 24.1678 11.572 24.1569L11.5616 16.7326L23.3293 5.64689ZM26.4304 28.0502L20.8193 27.4042L20.2907 27.3434L20.2799 19.6406L26.4187 19.632L26.4304 28.0502ZM45.134 30.0129L35.8157 38.3938C35.0391 39.0234 34.1077 39.4399 33.1204 39.5983L18.6887 41.6786C18.6857 41.6791 18.6828 41.6795 18.6797 41.68L18.6697 41.6816C18.2325 41.7508 17.7772 41.7216 17.3163 41.5951L7.04504 37.7055V25.0889H8.19296C9.17014 25.0889 10.1407 25.2017 11.0858 25.4209C11.121 25.429 11.1561 25.4374 11.1911 25.4458C11.3073 25.4738 11.4231 25.5026 11.5384 25.5339C11.5485 25.5366 11.5585 25.5395 11.5686 25.5423C11.6842 25.5739 11.7993 25.6072 11.914 25.642C11.9346 25.6482 11.9553 25.6544 11.9757 25.6607C12.0978 25.6984 12.2194 25.7378 12.3403 25.7791C12.3527 25.7835 12.3651 25.7879 12.3776 25.7922C12.6294 25.8791 12.8787 25.9739 13.1249 26.0766C13.1383 26.0822 13.1517 26.0878 13.1651 26.0934C13.2879 26.145 13.4099 26.1984 13.531 26.2538C13.5343 26.2553 13.5376 26.2568 13.5408 26.2584C13.6579 26.3122 13.7742 26.368 13.8898 26.4254C13.9034 26.4321 13.917 26.4387 13.9306 26.4455C14.0435 26.5019 14.1555 26.5604 14.2669 26.6203C14.2879 26.6316 14.3088 26.6431 14.3299 26.6545C14.4422 26.7157 14.5539 26.7782 14.6646 26.8429C16.261 27.7767 17.9989 28.3816 19.8301 28.6407C19.8358 28.6415 19.8415 28.6423 19.8473 28.6429L27.3637 29.5083C27.4053 29.5143 27.4466 29.5211 27.4877 29.5289C28.5942 29.7367 29.4675 30.5543 29.7597 31.6191C29.803 31.7768 29.8335 31.94 29.8502 32.1073L29.8801 32.4075L15.7929 31.1733C15.4241 31.1411 15.0984 31.414 15.0661 31.783C15.0337 32.1521 15.3068 32.4776 15.6758 32.5099L30.5691 33.8148C30.5727 33.815 30.5762 33.8149 30.5796 33.8152C30.5831 33.8155 30.5865 33.816 30.5901 33.8163L33.3988 33.9739C33.4114 33.9747 33.4239 33.9749 33.4364 33.9749C33.4497 33.9749 33.4628 33.9728 33.476 33.972C33.491 33.9711 33.506 33.9705 33.5208 33.9687C33.5408 33.9661 33.5604 33.9618 33.58 33.9575C33.5941 33.9544 33.6082 33.9521 33.622 33.948C33.6435 33.9419 33.6641 33.9335 33.685 33.9252C33.6962 33.9207 33.7077 33.9173 33.7187 33.9122C33.75 33.8977 33.7805 33.8809 33.8095 33.8615L36.1937 32.266C36.1938 32.2659 36.1939 32.2658 36.1939 32.2657L43.235 27.5536C43.9433 27.0774 44.9103 27.2642 45.3905 27.97C45.8295 28.6149 45.7205 29.492 45.134 30.0129Z" fill="#33395A"/>
</svg>
