<svg width="44" height="44" viewBox="0 0 44 44" fill="none" xmlns="http://www.w3.org/2000/svg">
<path d="M0 0V36.6667H24.7457C24.8682 37.1067 24.9312 37.5608 24.9333 38.0173V38.1333H23.4667V44H39.6V38.1333H38.123L38.1276 37.5468C38.1308 37.2432 38.1967 36.9435 38.321 36.6667H44V0H0ZM38.1333 42.5333H24.9333V39.6H38.1333V42.5333ZM26.4 38.1333V38.0173C26.3993 36.9442 26.1375 35.8871 25.6373 34.9375L24.8717 33.4863L22.3506 26.593C22.3359 26.5533 22.318 26.5149 22.2968 26.4784C22.15 26.222 22.1715 25.9026 22.3513 25.6681C22.531 25.4336 22.834 25.3297 23.1197 25.4049C23.3077 25.4543 23.4677 25.5771 23.5641 25.7458L25.1299 28.4593C25.4618 29.034 26.1386 29.3144 26.7796 29.1425C27.4209 28.9706 27.8667 28.3898 27.8667 27.7259V17.6C27.8667 17.195 28.195 16.8667 28.6 16.8667C29.005 16.8667 29.3333 17.195 29.3333 17.6V24.2C29.3319 24.5824 29.6248 24.9015 30.0058 24.9333L36.116 25.4422C37.2528 25.5428 38.1265 26.4917 38.1333 27.6328V33.5786C38.1348 34.0126 38.0069 34.4373 37.7667 34.799L37.279 35.5323C36.8822 36.1271 36.6681 36.8249 36.6638 37.54L36.6563 38.1333H26.4ZM42.5333 35.2H39.2172C39.4679 34.6962 39.5989 34.1412 39.6 33.5786V27.6328C39.5889 25.7304 38.1326 24.1484 36.2377 23.9801L30.8 23.5254V17.6C30.8 16.3851 29.8149 15.4 28.6 15.4C27.3851 15.4 26.4 16.3851 26.4 17.6V27.7259L24.8352 25.0125C24.224 23.9952 22.9163 23.6457 21.8793 24.2229C20.8424 24.8001 20.4499 26.0953 20.9924 27.1509L23.5114 34.0348C23.5229 34.0656 23.5361 34.0957 23.5519 34.1251L24.118 35.2H1.46667V7.33333H42.5333V35.2ZM1.46667 5.86667V1.46667H42.5333V5.86667H1.46667Z" fill="#33395A"/>
</svg>
