<svg width="92" height="93" viewBox="0 0 92 93" fill="none" xmlns="http://www.w3.org/2000/svg">
<rect width="92" height="93" fill="#24549F"/>
<path fill-rule="evenodd" clip-rule="evenodd" d="M60.3492 50.3914H60.1184V50.6746H60.3492V50.3914ZM59.1953 49.4683V51.5977H61.2723V49.4683H59.1953Z" fill="white"/>
<path fill-rule="evenodd" clip-rule="evenodd" d="M60.3492 56.3069H60.1184V56.5901H60.3492V56.3069ZM59.1953 55.3838V57.5133H61.2723V55.3838H59.1953Z" fill="white"/>
<path fill-rule="evenodd" clip-rule="evenodd" d="M54.1153 56.3069H53.8845V56.5901H54.1153V56.3069ZM52.9614 55.3838V57.5133H55.0385V55.3838H52.9614Z" fill="white"/>
<path fill-rule="evenodd" clip-rule="evenodd" d="M54.1158 37.615H53.885V37.8982H54.1158V37.615ZM52.9619 36.6919V38.8214H55.0389V36.6919H52.9619Z" fill="white"/>
<path fill-rule="evenodd" clip-rule="evenodd" d="M60.3492 37.6143H60.1184V37.8975H60.3492V37.6143ZM59.1953 36.6912V38.8206H61.2723V36.6912H59.1953Z" fill="white"/>
<path fill-rule="evenodd" clip-rule="evenodd" d="M60.3492 43.531H60.1184V43.8142H60.3492V43.531ZM59.1953 42.6079V44.7374H61.2723V42.6079H59.1953Z" fill="white"/>
<path fill-rule="evenodd" clip-rule="evenodd" d="M54.1153 43.531H53.8845V43.8142H54.1153V43.531ZM52.9614 42.6079V44.7374H55.0385V42.6079H52.9614Z" fill="white"/>
<line x1="44.1597" y1="60.9304" x2="44.1597" y2="21.2751" stroke="white"/>
<line x1="67.2378" y1="60.6055" x2="67.2378" y2="34.927" stroke="white"/>
<line x1="67.4788" y1="35.6799" x2="44.4007" y2="21.703" stroke="white"/>
<path d="M44.8318 21.2253L27.5444 31.7586" stroke="white"/>
<line x1="27.5823" y1="32.0015" x2="27.5823" y2="27.4509" stroke="white"/>
<line x1="22.0815" y1="27.4509" x2="22.0815" y2="60.6054" stroke="white"/>
<line x1="28.0823" y1="27.9509" x2="21.5814" y2="27.9509" stroke="white"/>
<path d="M11.1299 72.6555H14.0045C14.6248 72.6555 15.1621 72.6278 15.6163 72.5724C16.0815 72.517 16.4637 72.4062 16.7628 72.2401C17.0619 72.0628 17.2834 71.8191 17.4274 71.509C17.5825 71.1877 17.6601 70.7668 17.6601 70.2461C17.6601 69.7477 17.577 69.3489 17.4108 69.0498C17.2447 68.7396 17.0065 68.5014 16.6963 68.3353C16.3862 68.1691 16.0151 68.0583 15.583 68.0029C15.151 67.9365 14.6692 67.9033 14.1374 67.9033H11.1299V72.6555ZM11.1299 66.9395H13.9879C14.575 66.9395 15.0679 66.8897 15.4667 66.79C15.8655 66.6903 16.1868 66.5463 16.4305 66.3579C16.6742 66.1585 16.8459 65.9204 16.9456 65.6434C17.0564 65.3554 17.1117 65.0286 17.1117 64.6631C17.1117 64.2865 17.0508 63.9707 16.929 63.716C16.8071 63.4501 16.6133 63.2396 16.3474 63.0845C16.0815 62.9184 15.7326 62.8021 15.3006 62.7356C14.8796 62.6581 14.359 62.6193 13.7386 62.6193H11.1299V66.9395ZM10 73.6192V61.6556H14.3202C15.0181 61.6556 15.6163 61.7276 16.1148 61.8716C16.6133 62.0156 17.0176 62.2205 17.3278 62.4864C17.649 62.7522 17.8816 63.0735 18.0256 63.4501C18.1696 63.8157 18.2416 64.22 18.2416 64.6631C18.2416 65.084 18.1863 65.4496 18.0755 65.7598C17.9647 66.0589 17.8207 66.3136 17.6435 66.5241C17.4662 66.7235 17.2613 66.8841 17.0287 67.006C16.8071 67.1168 16.5745 67.1943 16.3308 67.2386V67.2718C17.1616 67.3937 17.7764 67.7205 18.1752 68.2522C18.585 68.7839 18.79 69.4486 18.79 70.2461C18.79 70.8665 18.6903 71.3927 18.4909 71.8247C18.3026 72.2567 18.0367 72.6056 17.6933 72.8715C17.3499 73.1374 16.9345 73.3312 16.4471 73.4531C15.9708 73.5638 15.4501 73.6192 14.8852 73.6192H10Z" fill="white"/>
<path d="M21.6478 73.6192V61.6556H22.7777V73.6192H21.6478Z" fill="white"/>
<path d="M24.9598 61.6556H33.6667V62.6193H29.8782V73.6192H28.7483V62.6193H24.9598V61.6556Z" fill="white"/>
<path d="M35.4557 61.6556H36.5856V68.7839C36.5856 70.2683 36.8625 71.3373 37.4164 71.9908C37.9702 72.6444 38.862 72.9712 40.0916 72.9712C40.7341 72.9712 41.2769 72.8881 41.72 72.722C42.1741 72.5447 42.5397 72.2844 42.8166 71.941C43.0936 71.5865 43.293 71.149 43.4148 70.6283C43.5367 70.1077 43.5976 69.4929 43.5976 68.7839V61.6556H44.7275V69.1162C44.7275 70.6782 44.3398 71.8745 43.5644 72.7053C42.8 73.5251 41.6424 73.9349 40.0916 73.9349C38.5297 73.9349 37.3665 73.514 36.6022 72.6721C35.8378 71.8302 35.4557 70.6449 35.4557 69.1162V61.6556Z" fill="white"/>
<path d="M48.7267 63.1842H48.6935V73.6192H47.5635V61.6556H48.843L55.7553 72.1072H55.7886V61.6556H56.9185V73.6192H55.6058L48.7267 63.1842Z" fill="white"/>
<path d="M60.1533 73.6192V61.6556H61.2832V73.6192H60.1533Z" fill="white"/>
<path d="M63.4653 61.6556H72.1722V62.6193H68.3837V73.6192H67.2538V62.6193H63.4653V61.6556Z" fill="white"/>
<path d="M74.4098 70.0467C74.4541 70.5785 74.5704 71.0326 74.7587 71.4093C74.9581 71.7748 75.2073 72.0739 75.5064 72.3065C75.8166 72.5392 76.1711 72.7109 76.5699 72.8217C76.9687 72.9213 77.3952 72.9712 77.8493 72.9712C78.381 72.9712 78.8408 72.9047 79.2285 72.7718C79.6162 72.6389 79.9319 72.4616 80.1756 72.2401C80.4193 72.0075 80.5965 71.7416 80.7073 71.4425C80.8292 71.1434 80.8901 70.8277 80.8901 70.4954C80.8901 70.0301 80.7849 69.6535 80.5744 69.3655C80.3639 69.0775 80.087 68.8448 79.7436 68.6676C79.4113 68.4793 79.0235 68.3297 78.5804 68.219C78.1484 68.1082 77.6998 68.0029 77.2345 67.9033C76.7804 67.7925 76.3317 67.6651 75.8886 67.5211C75.4566 67.3771 75.0689 67.1832 74.7255 66.9395C74.3932 66.6958 74.1218 66.3856 73.9113 66.009C73.7008 65.6213 73.5956 65.1339 73.5956 64.5468C73.5956 64.1369 73.6787 63.7381 73.8448 63.3504C74.0221 62.9627 74.2768 62.6193 74.6092 62.3202C74.9526 62.0211 75.3791 61.7829 75.8886 61.6057C76.3982 61.4285 76.9853 61.3398 77.6499 61.3398C78.3257 61.3398 78.9128 61.434 79.4112 61.6223C79.9208 61.8106 80.3418 62.071 80.6741 62.4033C81.0064 62.7245 81.2557 63.1012 81.4218 63.5332C81.588 63.9652 81.6711 64.4249 81.6711 64.9123H80.591C80.591 64.4582 80.5079 64.0649 80.3418 63.7326C80.1867 63.4003 79.9707 63.1289 79.6937 62.9184C79.4168 62.7079 79.1011 62.5528 78.7466 62.4531C78.3921 62.3534 78.0266 62.3036 77.6499 62.3036C77.0739 62.3036 76.5865 62.3867 76.1877 62.5528C75.8 62.7079 75.4898 62.9128 75.2572 63.1676C75.0246 63.4224 74.8639 63.7049 74.7753 64.0151C74.6867 64.3252 74.6701 64.6354 74.7255 64.9456C74.7919 65.3333 74.947 65.6434 75.1907 65.8761C75.4344 66.1087 75.7335 66.3026 76.088 66.4576C76.4425 66.6016 76.8302 66.7235 77.2511 66.8232C77.6832 66.9118 78.1207 67.0115 78.5638 67.1223C79.0069 67.222 79.4334 67.3438 79.8433 67.4878C80.2642 67.6319 80.6353 67.8257 80.9566 68.0694C81.2778 68.3131 81.5326 68.6288 81.7209 69.0165C81.9203 69.3932 82.02 69.8695 82.02 70.4455C82.02 71.5533 81.6378 72.4118 80.8735 73.021C80.1091 73.6303 79.0346 73.9349 77.6499 73.9349C77.0296 73.9349 76.4536 73.8519 75.9218 73.6857C75.3901 73.5306 74.9304 73.2924 74.5427 72.9712C74.155 72.6389 73.8504 72.2345 73.6288 71.7582C73.4183 71.2708 73.3131 70.7003 73.3131 70.0467H74.4098Z" fill="white"/>
</svg>
