<svg width="69" height="51" viewBox="0 0 69 51" fill="none" xmlns="http://www.w3.org/2000/svg">
<path fill-rule="evenodd" clip-rule="evenodd" d="M47.5542 28.7604H47.3362V29.0279H47.5542V28.7604ZM46.4644 27.8885V29.8997H48.426V27.8885H46.4644Z" fill="white"/>
<path fill-rule="evenodd" clip-rule="evenodd" d="M47.5542 34.3481H47.3362V34.6156H47.5542V34.3481ZM46.4644 33.4763V35.4874H48.426V33.4763H46.4644Z" fill="white"/>
<path fill-rule="evenodd" clip-rule="evenodd" d="M41.666 34.3481H41.448V34.6156H41.666V34.3481ZM40.5762 33.4763V35.4874H42.5378V33.4763H40.5762Z" fill="white"/>
<path fill-rule="evenodd" clip-rule="evenodd" d="M41.666 16.6925H41.448V16.96H41.666V16.6925ZM40.5762 15.8206V17.8318H42.5378V15.8206H40.5762Z" fill="white"/>
<path fill-rule="evenodd" clip-rule="evenodd" d="M47.5542 16.6925H47.3362V16.96H47.5542V16.6925ZM46.4644 15.8206V17.8318H48.426V15.8206H46.4644Z" fill="white"/>
<path fill-rule="evenodd" clip-rule="evenodd" d="M47.5542 22.2802H47.3362V22.5477H47.5542V22.2802ZM46.4644 21.4083V23.4195H48.426V21.4083H46.4644Z" fill="white"/>
<path fill-rule="evenodd" clip-rule="evenodd" d="M41.666 22.2802H41.448V22.5477H41.666V22.2802ZM40.5762 21.4083V23.4195H42.5378V21.4083H40.5762Z" fill="white"/>
<line x1="32.2349" y1="38.7126" x2="32.2349" y2="1.25975" stroke="white"/>
<line x1="54.0312" y1="38.4057" x2="54.0312" y2="14.1535" stroke="white"/>
<line x1="54.2722" y1="14.8882" x2="32.4759" y2="1.6876" stroke="white"/>
<path d="M32.8975 1.21277L16.5703 11.161" stroke="white"/>
<line x1="16.5781" y1="11.3904" x2="16.5781" y2="7.09251" stroke="white"/>
<line x1="11.4385" y1="7.09265" x2="11.4385" y2="38.4057" stroke="white"/>
<line x1="17.0781" y1="7.59265" x2="10.9383" y2="7.59265" stroke="white"/>
<path d="M1.06715 49.7862H3.7821C4.36798 49.7862 4.8754 49.7601 5.30435 49.7078C5.74377 49.6555 6.10471 49.5508 6.38719 49.3939C6.66967 49.2265 6.87892 48.9963 7.01493 48.7034C7.1614 48.4 7.23463 48.0024 7.23463 47.5107C7.23463 47.0399 7.15617 46.6633 6.99923 46.3808C6.8423 46.0878 6.61736 45.8629 6.32442 45.706C6.03148 45.549 5.68099 45.4444 5.27296 45.3921C4.86494 45.3293 4.40983 45.2979 3.90764 45.2979H1.06715V49.7862ZM1.06715 44.3877H3.7664C4.3209 44.3877 4.78647 44.3406 5.16311 44.2465C5.53975 44.1523 5.84316 44.0163 6.07333 43.8385C6.30349 43.6501 6.46566 43.4252 6.55982 43.1636C6.66444 42.8916 6.71675 42.583 6.71675 42.2377C6.71675 41.882 6.65921 41.5838 6.54413 41.3432C6.42904 41.0921 6.24595 40.8933 5.99486 40.7469C5.74377 40.5899 5.41421 40.4801 5.00618 40.4173C4.60861 40.3441 4.11689 40.3074 3.531 40.3074H1.06715V44.3877ZM0 50.6964V39.3972H4.08027C4.73939 39.3972 5.30435 39.4652 5.77515 39.6012C6.24595 39.7373 6.62782 39.9308 6.92077 40.1819C7.22417 40.433 7.44388 40.7364 7.57989 41.0921C7.7159 41.4374 7.7839 41.8192 7.7839 42.2377C7.7839 42.6353 7.73159 42.9805 7.62697 43.2735C7.52234 43.556 7.38634 43.7966 7.21894 43.9954C7.05154 44.1837 6.85799 44.3354 6.63829 44.4505C6.42904 44.5551 6.20933 44.6284 5.97917 44.6702V44.7016C6.76383 44.8167 7.34449 45.1253 7.72113 45.6275C8.10823 46.1297 8.30178 46.7574 8.30178 47.5107C8.30178 48.0966 8.20762 48.5935 8.0193 49.0016C7.84144 49.4096 7.59035 49.7392 7.26602 49.9902C6.94169 50.2413 6.54936 50.4244 6.08902 50.5395C5.63914 50.6441 5.14742 50.6964 4.61384 50.6964H0Z" fill="white"/>
<path d="M11.0009 50.6964V39.3972H12.0681V50.6964H11.0009Z" fill="white"/>
<path d="M14.1289 39.3972H22.3522V40.3074H18.7741V50.6964H17.707V40.3074H14.1289V39.3972Z" fill="white"/>
<path d="M24.0418 39.3972H25.109V46.1297C25.109 47.5316 25.3705 48.5412 25.8937 49.1585C26.4168 49.7758 27.259 50.0844 28.4203 50.0844C29.0271 50.0844 29.5397 50.0059 29.9582 49.849C30.3872 49.6816 30.7324 49.4357 30.994 49.1114C31.2556 48.7766 31.4439 48.3634 31.559 47.8716C31.674 47.3799 31.7316 46.7993 31.7316 46.1297V39.3972H32.7987V46.4435C32.7987 47.9187 32.4326 49.0486 31.7002 49.8333C30.9783 50.6075 29.885 50.9946 28.4203 50.9946C26.9451 50.9946 25.8466 50.5971 25.1247 49.8019C24.4028 49.0068 24.0418 47.8873 24.0418 46.4435V39.3972Z" fill="white"/>
<path d="M36.5758 40.841H36.5444V50.6964H35.4773V39.3972H36.6856L43.2141 49.2684H43.2455V39.3972H44.3126V50.6964H43.0728L36.5758 40.841Z" fill="white"/>
<path d="M47.3678 50.6964V39.3972H48.4349V50.6964H47.3678Z" fill="white"/>
<path d="M50.4958 39.3972H58.7191V40.3074H55.141V50.6964H54.0739V40.3074H50.4958V39.3972Z" fill="white"/>
<path d="M60.8324 47.3224C60.8743 47.8246 60.9841 48.2535 61.162 48.6092C61.3503 48.9545 61.5857 49.237 61.8682 49.4567C62.1611 49.6764 62.4959 49.8385 62.8726 49.9432C63.2492 50.0373 63.652 50.0844 64.081 50.0844C64.5832 50.0844 65.0173 50.0216 65.3835 49.8961C65.7497 49.7705 66.0479 49.6031 66.278 49.3939C66.5082 49.1742 66.6756 48.9231 66.7802 48.6406C66.8953 48.3581 66.9529 48.06 66.9529 47.7461C66.9529 47.3067 66.8535 46.951 66.6547 46.6789C66.4559 46.4069 66.1943 46.1872 65.87 46.0198C65.5561 45.842 65.19 45.7007 64.7715 45.5961C64.3634 45.4915 63.9397 45.3921 63.5003 45.2979C63.0714 45.1933 62.6476 45.073 62.2292 44.937C61.8211 44.801 61.4549 44.6179 61.1306 44.3877C60.8167 44.1575 60.5604 43.8646 60.3616 43.5089C60.1629 43.1427 60.0635 42.6824 60.0635 42.1279C60.0635 41.7408 60.1419 41.3641 60.2989 40.998C60.4663 40.6318 60.7069 40.3074 61.0208 40.025C61.3451 39.7425 61.7479 39.5175 62.2292 39.3502C62.7104 39.1828 63.2649 39.0991 63.8926 39.0991C64.5308 39.0991 65.0853 39.188 65.5561 39.3658C66.0374 39.5437 66.435 39.7896 66.7488 40.1034C67.0627 40.4068 67.2981 40.7626 67.455 41.1706C67.612 41.5786 67.6904 42.0128 67.6904 42.4731H66.6704C66.6704 42.0442 66.5919 41.6728 66.435 41.3589C66.2885 41.045 66.0845 40.7887 65.8229 40.5899C65.5614 40.3911 65.2632 40.2447 64.9284 40.1505C64.5936 40.0564 64.2484 40.0093 63.8926 40.0093C63.3486 40.0093 62.8883 40.0877 62.5116 40.2447C62.1455 40.3911 61.8525 40.5847 61.6328 40.8253C61.4131 41.066 61.2614 41.3327 61.1777 41.6257C61.094 41.9186 61.0783 42.2116 61.1306 42.5045C61.1934 42.8707 61.3399 43.1636 61.57 43.3833C61.8002 43.6031 62.0827 43.7861 62.4175 43.9326C62.7523 44.0686 63.1184 44.1837 63.516 44.2779C63.924 44.3616 64.3373 44.4557 64.7558 44.5603C65.1743 44.6545 65.5771 44.7696 65.9642 44.9056C66.3617 45.0416 66.7122 45.2247 67.0156 45.4549C67.319 45.685 67.5597 45.9832 67.7375 46.3494C67.9258 46.7051 68.02 47.155 68.02 47.699C68.02 48.7452 67.659 49.5561 66.9371 50.1315C66.2153 50.7069 65.2004 50.9946 63.8926 50.9946C63.3068 50.9946 62.7627 50.9162 62.2605 50.7592C61.7584 50.6127 61.3242 50.3878 60.958 50.0844C60.5918 49.7705 60.3041 49.3887 60.0949 48.9388C59.8961 48.4785 59.7967 47.9396 59.7967 47.3224H60.8324Z" fill="white"/>
</svg>
